<svg xmlns="http://www.w3.org/2000/svg" viewBox="0 0 960 880" font-family="'Inter', system-ui, sans-serif">
  <defs>
    <!-- 卡片外阴影 -->
    <filter id="softShadow" x="-10%" y="-10%" width="120%" height="120%">
      <feDropShadow dx="0" dy="6" stdDeviation="12" flood-color="#94A3B8" flood-opacity="0.12"/>
    </filter>
    <!-- 浅色内嵌阴影 -->
    <filter id="lightShadow" x="-10%" y="-10%" width="120%" height="120%">
      <feDropShadow dx="0" dy="2" stdDeviation="4" flood-color="#94A3B8" flood-opacity="0.08"/>
    </filter>

    <marker id="arrow" viewBox="0 0 10 10" refX="8" refY="5" markerWidth="6" markerHeight="6" orient="auto-start-reverse">
      <path d="M 0 1 L 8 5 L 0 9 z" fill="#CBD5E1" />
    </marker>
    <marker id="arrow-green" viewBox="0 0 10 10" refX="8" refY="5" markerWidth="6" markerHeight="6" orient="auto-start-reverse">
      <path d="M 0 1 L 8 5 L 0 9 z" fill="#86EFAC" />
    </marker>

    <style>
      @keyframes dash { to { stroke-dashoffset: -32; } }
      @keyframes pulse { 0%,100% { opacity: 0.6; } 50% { opacity: 1; } }
      @keyframes float { 0%,100% { transform: translateY(0); } 50% { transform: translateY(-4px); } }
      .flow-line { stroke-dasharray: 8 8; animation: dash 2.5s linear infinite; }
      .pulse-node { animation: pulse 3s ease-in-out infinite; }
      .float-box { animation: float 4s ease-in-out infinite; }
      .hover-card { 
        transition: transform 0.3s cubic-bezier(0.34, 1.56, 0.64, 1), filter 0.3s ease; 
        transform-origin: center; 
        transform-box: fill-box;
      }
      .hover-card:hover { 
        transform: scale(1.03); 
        filter: drop-shadow(0 10px 15px rgba(148, 163, 184, 0.2)); 
      }
      text { pointer-events: none; }
    </style>
  </defs>

  <rect width="960" height="880" rx="32" fill="#F8FAFC"/>

  <text x="480" y="46" text-anchor="middle" fill="#1E293B" font-size="24" font-weight="800" letter-spacing="0.5">PAI · 智能体决策调度流程</text>
  <text x="480" y="72" text-anchor="middle" fill="#64748B" font-size="13" font-weight="500">LangGraph StateGraph · LLM 意图分类 · MCP 工具协议 · 条件边路由 · Redis Checkpointer</text>

  <g class="float-box" style="animation-delay:0s">
    <g class="hover-card">
      <rect x="380" y="84" width="200" height="44" rx="22" fill="#FFFFFF" stroke="#818CF8" stroke-width="2" filter="url(#softShadow)"/>
      <text x="480" y="111" text-anchor="middle" fill="#4F46E5" font-size="13" font-weight="800">▶ Entry Point</text>
    </g>
  </g>
  <circle cx="480" cy="106" r="3" fill="#818CF8" class="pulse-node"/>

  <rect x="590" y="84" width="134" height="44" rx="12" fill="#EEF2FF" stroke="#C7D2FE" stroke-width="1.5"/>
  <text x="657" y="103" text-anchor="middle" fill="#4F46E5" font-size="10" font-weight="700">set_entry_point</text>
  <text x="657" y="118" text-anchor="middle" fill="#64748B" font-size="9">graph.ainvoke(state)</text>

  <line x1="480" y1="128" x2="480" y2="166" class="flow-line" stroke="#818CF8" stroke-width="2" opacity="0.6"/>

  <g class="hover-card">
    <rect x="280" y="162" width="400" height="84" rx="14" fill="#FFFFFF" stroke="#34D399" stroke-width="2" filter="url(#softShadow)"/>
    <text x="480" y="190" text-anchor="middle" fill="#059669" font-size="15" font-weight="800">🔀 Router · 意图路由器</text>
    <text x="480" y="210" text-anchor="middle" fill="#475569" font-size="11" font-weight="600">router_node() 意图分类  →  route_intent() 条件路由</text>
    <text x="480" y="228" text-anchor="middle" fill="#64748B" font-size="10">上下文增强: conversation_context · has_image · has_pending_ledger · tool_catalog</text>
  </g>
  <circle cx="480" cy="190" r="3" fill="#34D399" class="pulse-node"/>

  <g class="hover-card" filter="url(#softShadow)">
    <rect x="736" y="74" width="214" height="170" rx="12" fill="#F1F5F9" stroke="#E2E8F0" stroke-width="1.5" />
    <text x="785" y="94" fill="#059669" font-size="11" font-weight="800">🧠 路由分层决策</text>
    <line x1="746" y1="102" x2="940" y2="102" stroke="#CBD5E1" stroke-width="1"/>
    <text x="746" y="116" fill="#B45309" font-size="9.5" font-weight="700">① 前置拦截 (router_node)</text>
    <text x="756" y="128" fill="#64748B" font-size="9">setup_stage &lt; 3 → 跳过(由③处理)</text>
    <text x="756" y="140" fill="#64748B" font-size="9">空消息且无图 → chat_manager</text>
    <text x="746" y="156" fill="#B45309" font-size="9.5" font-weight="700">② LLM 意图分类</text>
    <text x="756" y="168" fill="#64748B" font-size="9">_classify_intent_with_llm()</text>
    <text x="756" y="180" fill="#64748B" font-size="9">+context · +image · +pending</text>
    <text x="756" y="192" fill="#64748B" font-size="9">unknown → image/pending→ledger_mgr</text>
    <text x="746" y="208" fill="#B45309" font-size="9.5" font-weight="700">③ 命令兜底 (route_intent)</text>
    <text x="756" y="220" fill="#64748B" font-size="9">setup&lt;3→onboarding</text>
    <text x="756" y="232" fill="#64748B" font-size="9">/help /skill /ledger ...</text>
  </g>

  <line x1="680" y1="168" x2="736" y2="168" class="flow-line" stroke="#86EFAC" stroke-width="2" marker-end="url(#arrow-green)"/>

  <text x="480" y="266" text-anchor="middle" fill="#64748B" font-size="10" font-weight="600">add_conditional_edges("router", route_intent)</text>

  <g stroke="#CBD5E1" stroke-width="2" class="flow-line" opacity="0.6">
    <path d="M 320 246 L 85 310" marker-end="url(#arrow)" style="animation-delay:.1s"/>    <!-- -> Onboarding -->
    <path d="M 380 246 L 232 310" marker-end="url(#arrow)" style="animation-delay:.2s"/>   <!-- -> Ledger -->
    <path d="M 440 246 L 381 310" marker-end="url(#arrow)" style="animation-delay:.3s"/>   <!-- -> Schedule -->
    <path d="M 500 246 L 530 310" marker-end="url(#arrow)" style="animation-delay:.4s"/>   <!-- -> Chat -->
    <path d="M 560 246 L 681 310" marker-end="url(#arrow)" style="animation-delay:.5s"/>   <!-- -> Skill -->
    <path d="M 640 246 L 850 310" marker-end="url(#arrow)" style="animation-delay:.6s"/>   <!-- -> Help Center -->
    <path d="M 600 246 L 842 456" marker-end="url(#arrow)" style="animation-delay:.7s"/>   <!-- -> Complex Task -->
  </g>

  <text x="202" y="284" fill="#7C3AED" font-size="9" font-weight="700" transform="rotate(-15,202,284)">setup&lt;3</text>
  <text x="306" y="284" fill="#059669" font-size="9" font-weight="700">ledger_mgr</text>
  <text x="410" y="284" fill="#2563EB" font-size="9" font-weight="700">schedule_mgr</text>
  <text x="515" y="284" fill="#DB2777" font-size="9" font-weight="700">chat_mgr</text>
  <text x="620" y="284" fill="#D97706" font-size="9" font-weight="700">skill_mgr</text>
  <text x="755" y="284" fill="#0891B2" font-size="9" font-weight="700">help_center</text>
  <text x="740" y="340" fill="#B45309" font-size="9" font-weight="700">complex_task</text>

  <!-- 节点层 -->
  <g class="float-box" style="animation-delay:0s">
    <g class="hover-card">
      <rect x="20" y="310" width="130" height="140" rx="12" fill="#F3E8FF" stroke="#E9D5FF" stroke-width="1.5" filter="url(#softShadow)"/>
      <text x="85" y="334" text-anchor="middle" fill="#6B21A8" font-size="12" font-weight="800">🚀 Onboarding</text>
      <text x="85" y="348" text-anchor="middle" fill="#9333EA" font-size="9" font-weight="600">新用户引导</text>
      <line x1="32" y1="358" x2="138" y2="358" stroke="#D8B4FE" stroke-width="1"/>
      <text x="36" y="374" fill="#6B21A8" font-size="8">Step 1 设置昵称</text>
      <text x="36" y="388" fill="#6B21A8" font-size="8">Step 2 命名 AI</text>
      <text x="36" y="402" fill="#6B21A8" font-size="8">Step 3 选择表情</text>
      <line x1="32" y1="412" x2="138" y2="412" stroke="#D8B4FE" stroke-width="1"/>
      <text x="36" y="426" fill="#9333EA" font-size="8" font-style="italic">LLM 提取 → User</text>
      <text x="36" y="440" fill="#9333EA" font-size="8" font-style="italic">stage 0→1→2→3</text>
    </g>
  </g>

  <g class="float-box" style="animation-delay:.3s">
    <g class="hover-card">
      <rect x="160" y="310" width="144" height="140" rx="12" fill="#DCFCE7" stroke="#BBF7D0" stroke-width="1.5" filter="url(#softShadow)"/>
      <text x="232" y="334" text-anchor="middle" fill="#166534" font-size="12" font-weight="800">💰 Ledger Mgr</text>
      <text x="232" y="348" text-anchor="middle" fill="#22C55E" font-size="9" font-weight="600">ledger_manager_node()</text>
      <line x1="172" y1="358" x2="292" y2="358" stroke="#86EFAC" stroke-width="1"/>
      <text x="176" y="374" fill="#166534" font-size="8">LLM 解析金额/分类</text>
      <text x="176" y="388" fill="#166534" font-size="8">小票 OCR (Vision)</text>
      <text x="176" y="402" fill="#166534" font-size="8">增/删/改/查 · Text2SQL</text>
      <line x1="172" y1="412" x2="292" y2="412" stroke="#86EFAC" stroke-width="1"/>
      <text x="176" y="426" fill="#22C55E" font-size="8" font-style="italic">pending_ledger 确认</text>
      <text x="176" y="440" fill="#22C55E" font-size="8" font-style="italic">analyze_receipt()</text>
    </g>
  </g>

  <g class="float-box" style="animation-delay:.6s">
    <g class="hover-card">
      <rect x="314" y="310" width="134" height="140" rx="12" fill="#DBEAFE" stroke="#BFDBFE" stroke-width="1.5" filter="url(#softShadow)"/>
      <text x="381" y="334" text-anchor="middle" fill="#1E3A8A" font-size="12" font-weight="800">📅 Schedule Mgr</text>
      <text x="381" y="348" text-anchor="middle" fill="#3B82F6" font-size="9" font-weight="600">schedule_manager_node()</text>
      <line x1="326" y1="358" x2="436" y2="358" stroke="#93C5FD" stroke-width="1"/>
      <text x="330" y="374" fill="#1E3A8A" font-size="8">自然语言→时间</text>
      <text x="330" y="388" fill="#1E3A8A" font-size="8">APScheduler 持久化</text>
      <text x="330" y="402" fill="#1E3A8A" font-size="8">日历查询(日/周/月)</text>
      <line x1="326" y1="412" x2="436" y2="412" stroke="#93C5FD" stroke-width="1"/>
      <text x="330" y="426" fill="#3B82F6" font-size="8" font-style="italic">send_reminder_job()</text>
      <text x="330" y="440" fill="#3B82F6" font-size="8" font-style="italic">多端广播 + 投递记录</text>
    </g>
  </g>

  <g class="float-box" style="animation-delay:.9s">
    <g class="hover-card">
      <rect x="458" y="310" width="144" height="140" rx="12" fill="#FCE7F3" stroke="#FBCFE8" stroke-width="2" filter="url(#softShadow)"/>
      <text x="530" y="334" text-anchor="middle" fill="#9D174D" font-size="12" font-weight="800">✍️ Chat Mgr + MCP</text>
      <text x="530" y="348" text-anchor="middle" fill="#EC4899" font-size="9" font-weight="600">chat_manager_node()</text>
      <line x1="470" y1="358" x2="590" y2="358" stroke="#F9A8D4" stroke-width="1"/>
      <text x="474" y="374" fill="#9D174D" font-size="8">翻译/润色/写作/问答</text>
      <text x="474" y="388" fill="#9D174D" font-size="8">天气查询 · 技能注入</text>
      <text x="474" y="402" fill="#9D174D" font-size="8">unknown → 兜底</text>
      <line x1="470" y1="412" x2="590" y2="412" stroke="#F9A8D4" stroke-width="1"/>
      <text x="474" y="426" fill="#DB2777" font-size="8" font-weight="700">↓ create_react_agent()</text>
      <text x="474" y="440" fill="#EC4899" font-size="8" font-style="italic">tool_registry 动态发现</text>
    </g>
  </g>

  <g class="float-box" style="animation-delay:1.2s">
    <g class="hover-card">
      <rect x="612" y="310" width="138" height="140" rx="12" fill="#FFEDD5" stroke="#FED7AA" stroke-width="1.5" filter="url(#softShadow)"/>
      <text x="681" y="334" text-anchor="middle" fill="#9A3412" font-size="12" font-weight="800">🎯 Skill Mgr</text>
      <text x="681" y="348" text-anchor="middle" fill="#F97316" font-size="9" font-weight="600">skill_manager_node()</text>
      <line x1="624" y1="358" x2="738" y2="358" stroke="#FDBA74" stroke-width="1"/>
      <text x="628" y="374" fill="#9A3412" font-size="8">创建/更新技能草稿</text>
      <text x="628" y="388" fill="#9A3412" font-size="8">发布 / 停用技能</text>
      <text x="628" y="402" fill="#9A3412" font-size="8">查看技能内容</text>
      <line x1="624" y1="412" x2="738" y2="412" stroke="#FDBA74" stroke-width="1"/>
      <text x="628" y="426" fill="#F97316" font-size="8" font-style="italic">parse_skill_intent()</text>
      <text x="628" y="440" fill="#F97316" font-size="8" font-style="italic">SKILL.md 模板</text>
    </g>
  </g>

  <g class="float-box" style="animation-delay:1.5s">
    <g class="hover-card">
      <rect x="760" y="310" width="180" height="140" rx="12" fill="#CFFAFE" stroke="#A5F3FC" stroke-width="1.5" filter="url(#softShadow)"/>
      <text x="850" y="334" text-anchor="middle" fill="#155E75" font-size="12" font-weight="800">📖 Help Center</text>
      <text x="850" y="348" text-anchor="middle" fill="#06B6D4" font-size="9" font-weight="600">help_center_node()</text>
      <line x1="772" y1="358" x2="928" y2="358" stroke="#67E8F9" stroke-width="1"/>
      <text x="776" y="374" fill="#155E75" font-size="8">AGENT_GUIDE.md 知识库</text>
      <text x="776" y="388" fill="#155E75" font-size="8">命令帮助说明</text>
      <text x="776" y="402" fill="#155E75" font-size="8">工具能力概览</text>
      <line x1="772" y1="412" x2="928" y2="412" stroke="#67E8F9" stroke-width="1"/>
      <text x="776" y="426" fill="#06B6D4" font-size="8" font-style="italic">_load_help_doc()</text>
      <text x="776" y="440" fill="#06B6D4" font-size="8" font-style="italic">tool_registry 注入</text>
    </g>
  </g>

  <g class="float-box" style="animation-delay:1.7s">
    <g class="hover-card">
      <rect x="748" y="456" width="188" height="76" rx="14" fill="#FEF9C3" stroke="#FDE047" stroke-width="1.5" filter="url(#softShadow)"/>
      <text x="842" y="478" text-anchor="middle" fill="#A16207" font-size="12" font-weight="800">🧠 Complex Task</text>
      <text x="842" y="492" text-anchor="middle" fill="#CA8A04" font-size="9" font-weight="600">complex_task_node()</text>
      <line x1="760" y1="498" x2="924" y2="498" stroke="#FDE047" stroke-width="1"/>
      <text x="764" y="512" fill="#A16207" font-size="8">JSON 计划 (Schema) + 依赖调度</text>
      <text x="764" y="526" fill="#CA8A04" font-size="8" font-style="italic">跨节点编排后统一汇总回复</text>
    </g>
  </g>

  <!-- ReAct -->
  <line x1="533" y1="450" x2="533" y2="478" class="flow-line" stroke="#F472B6" stroke-width="2" opacity="0.6"/>

  <g class="hover-card">
    <rect x="468" y="478" width="130" height="34" rx="12" fill="#FFFFFF" stroke="#F472B6" stroke-width="2" filter="url(#softShadow)"/>
    <text x="533" y="500" text-anchor="middle" fill="#DB2777" font-size="11" font-weight="800">🤖 ReAct Agent</text>
    <circle cx="533" cy="495" r="2.5" fill="#DB2777" class="pulse-node"/>
  </g>

  <line x1="533" y1="512" x2="380" y2="542" class="flow-line" stroke="#FDE047" stroke-width="2" opacity="0.6"/>
  <line x1="533" y1="512" x2="472" y2="542" class="flow-line" stroke="#FDE047" stroke-width="2" opacity="0.6"/>
  <line x1="533" y1="512" x2="564" y2="542" class="flow-line" stroke="#FDE047" stroke-width="2" opacity="0.6"/>
  <line x1="533" y1="512" x2="656" y2="542" class="flow-line" stroke="#FDE047" stroke-width="2" opacity="0.6"/>

  <g class="hover-card">
    <rect x="338" y="542" width="84" height="30" rx="8" fill="#FEF9C3" stroke="#FDE047" stroke-width="1.5" filter="url(#lightShadow)"/>
    <text x="380" y="561" text-anchor="middle" fill="#A16207" font-size="10" font-weight="700">⏱ now_time</text>
  </g>
  <g class="hover-card">
    <rect x="430" y="542" width="84" height="30" rx="8" fill="#FEF9C3" stroke="#FDE047" stroke-width="1.5" filter="url(#lightShadow)"/>
    <text x="472" y="561" text-anchor="middle" fill="#A16207" font-size="10" font-weight="700">📋 list_tools</text>
  </g>
  <g class="hover-card">
    <rect x="522" y="542" width="84" height="30" rx="8" fill="#FEF9C3" stroke="#FDE047" stroke-width="1.5" filter="url(#lightShadow)"/>
    <text x="564" y="561" text-anchor="middle" fill="#A16207" font-size="10" font-weight="700">🔧 call_tool</text>
  </g>
  <g class="hover-card">
    <rect x="614" y="542" width="84" height="30" rx="8" fill="#FEF9C3" stroke="#FDE047" stroke-width="1.5" filter="url(#lightShadow)"/>
    <text x="656" y="561" text-anchor="middle" fill="#A16207" font-size="10" font-weight="700">🌐 fetch_url</text>
  </g>

  <line x1="472" y1="572" x2="533" y2="600" class="flow-line" stroke="#67E8F9" stroke-width="2" opacity="0.6"/>
  <line x1="564" y1="572" x2="533" y2="600" class="flow-line" stroke="#67E8F9" stroke-width="2" opacity="0.6"/>
  <line x1="656" y1="572" x2="533" y2="600" class="flow-line" stroke="#67E8F9" stroke-width="2" opacity="0.6"/>

  <g class="hover-card">
    <rect x="468" y="600" width="130" height="34" rx="12" fill="#FFFFFF" stroke="#22D3EE" stroke-width="2" filter="url(#softShadow)"/>
    <text x="533" y="622" text-anchor="middle" fill="#0891B2" font-size="11" font-weight="800">🔌 MCP Fetch Server</text>
    <circle cx="533" cy="617" r="2.5" fill="#0891B2" class="pulse-node"/>
  </g>
  <text x="612" y="622" fill="#64748B" font-size="8" font-style="italic">Streamable HTTP · JSON-RPC 2.0</text>

  <!-- Flow down to END -->
  <g class="flow-line" stroke="#CBD5E1" stroke-width="2" opacity="0.6">
    <path d="M 88 450 L 88 672" />
    <path d="M 240 450 L 240 672" />
    <path d="M 390 450 L 390 672" />
    <path d="M 684 450 L 684 672" />
    <path d="M 851 450 L 851 672" />
    <path d="M 842 532 L 842 672" />
    <path d="M 533 634 L 533 672" />
  </g>

  <line x1="88" y1="672" x2="851" y2="672" stroke="#E2E8F0" stroke-width="2"/>
  <text x="480" y="666" text-anchor="middle" fill="#64748B" font-size="10" font-weight="600">add_edge("node", END)</text>

  <line x1="480" y1="672" x2="480" y2="702" class="flow-line" stroke="#CBD5E1" stroke-width="2" opacity="0.6"/>

  <g class="hover-card">
    <rect x="410" y="700" width="140" height="40" rx="20" fill="#FFFFFF" stroke="#F87171" stroke-width="2" filter="url(#softShadow)"/>
    <text x="480" y="725" text-anchor="middle" fill="#DC2626" font-size="14" font-weight="800">🏁 END</text>
    <circle cx="480" cy="720" r="3" fill="#DC2626" class="pulse-node"/>
  </g>

  <line x1="480" y1="740" x2="480" y2="764" class="flow-line" stroke="#F87171" stroke-width="2" opacity="0.4"/>
  <text x="480" y="778" text-anchor="middle" fill="#475569" font-size="11" font-weight="600">responses: List[str] → UnifiedSender → 多平台投递</text>

  <!-- Infra -->
  <g class="hover-card">
    <rect x="30" y="800" width="300" height="58" rx="14" fill="#F1F5F9" stroke="#E2E8F0" stroke-width="1.5" filter="url(#lightShadow)"/>
    <text x="52" y="821" fill="#4F46E5" font-size="11" font-weight="800">📦 GraphState</text>
    <text x="52" y="836" fill="#64748B" font-size="10" font-family="monospace">user_id · conversation_id · setup_stage</text>
    <text x="52" y="850" fill="#64748B" font-size="10" font-family="monospace">message · intent · responses · extra</text>
  </g>

  <g class="hover-card">
    <rect x="350" y="800" width="310" height="58" rx="14" fill="#F1F5F9" stroke="#E2E8F0" stroke-width="1.5" filter="url(#lightShadow)"/>
    <text x="372" y="821" fill="#059669" font-size="11" font-weight="800">🗄️ 数据存储</text>
    <text x="372" y="836" fill="#64748B" font-size="10" font-family="monospace">PostgreSQL: users / ledgers / schedules / skills ...</text>
    <text x="372" y="850" fill="#64748B" font-size="10" font-family="monospace">Redis: checkpointer · pending_ledger · dedup</text>
  </g>

  <g class="hover-card">
    <rect x="680" y="800" width="250" height="58" rx="14" fill="#F1F5F9" stroke="#E2E8F0" stroke-width="1.5" filter="url(#lightShadow)"/>
    <text x="702" y="821" fill="#1E293B" font-size="11" font-weight="800">📐 图例</text>
    <line x1="742" y1="820" x2="772" y2="820" stroke="#34D399" stroke-width="2" stroke-dasharray="6 4"/>
    <text x="780" y="823" fill="#64748B" font-size="9" font-weight="600">条件边 (conditional_edges)</text>
    <line x1="742" y1="836" x2="772" y2="836" stroke="#FBBF24" stroke-width="2" stroke-dasharray="6 4"/>
    <text x="780" y="839" fill="#64748B" font-size="9" font-weight="600">工具调用 (ReAct → MCP)</text>
    <circle cx="750" cy="852" r="2.5" fill="#DB2777" class="pulse-node"/>
    <text x="780" y="855" fill="#64748B" font-size="9" font-weight="600">脉冲节点 = 核心决策点</text>
  </g>

</svg>
